<svg xmlns="http://www.w3.org/2000/svg" viewBox="0 0 64 64">
  <rect width="64" height="64" rx="14" fill="#0d1117"/>
  <g fill="none" stroke="#0ea5e9" stroke-width="2.5" stroke-linecap="round">
    <!-- fan blade 1 -->
    <path d="M32 32 C32 20 40 16 44 20 C48 24 44 32 32 32" fill="rgba(14,165,233,0.25)"/>
    <!-- fan blade 2 -->
    <path d="M32 32 C44 32 48 40 44 44 C40 48 32 44 32 32" fill="rgba(14,165,233,0.25)"/>
    <!-- fan blade 3 -->
    <path d="M32 32 C32 44 24 48 20 44 C16 40 20 32 32 32" fill="rgba(14,165,233,0.25)"/>
    <!-- fan blade 4 -->
    <path d="M32 32 C20 32 16 24 20 20 C24 16 32 20 32 32" fill="rgba(14,165,233,0.25)"/>
  </g>
  <circle cx="32" cy="32" r="4" fill="#0ea5e9"/>
  <circle cx="32" cy="32" r="2" fill="#080a0f"/>
</svg>
